<svg viewBox="0 0 900 560" xmlns="http://www.w3.org/2000/svg" font-family="Arial, sans-serif">
  <style>
    .box { fill: #eef2ff; stroke: #4f46e5; stroke-width: 1.5; rx: 8; }
    .decision { fill: #fef3c7; stroke: #d97706; stroke-width: 1.5; }
    .tool { fill: #d1fae5; stroke: #059669; stroke-width: 1.5; rx: 8; }
    .label { font-size: 13px; fill: #1f2937; }
    .small { font-size: 10px; fill: #4b5563; }
    .arrow { stroke: #6b7280; stroke-width: 1.5; fill: none; marker-end: url(#arrowhead); }
  </style>
  <defs>
    <marker id="arrowhead" markerWidth="8" markerHeight="8" refX="7" refY="4" orient="auto">
      <path d="M0,0 L8,4 L0,8 Z" fill="#6b7280"/>
    </marker>
  </defs>

  <rect x="20" y="20" width="140" height="50" class="box"/>
  <text x="90" y="40" text-anchor="middle" class="label">User Complaint</text>
  <text x="90" y="56" text-anchor="middle" class="small">(Gradio input)</text>

  <rect x="220" y="20" width="160" height="50" class="box"/>
  <text x="300" y="40" text-anchor="middle" class="label">Classifier</text>
  <text x="300" y="56" text-anchor="middle" class="small">GPT-4o: issue_type</text>

  <polygon points="460,15 560,45 460,75 360,45" class="decision"/>
  <text x="460" y="42" text-anchor="middle" class="label">Confident?</text>
  <text x="460" y="56" text-anchor="middle" class="small">(Supervisor)</text>

  <rect x="620" y="20" width="150" height="50" class="box"/>
  <text x="695" y="40" text-anchor="middle" class="label">Ask Clarifying</text>
  <text x="695" y="56" text-anchor="middle" class="small">Question (END)</text>

  <rect x="220" y="130" width="160" height="50" class="tool"/>
  <text x="300" y="150" text-anchor="middle" class="label">Legal Retrieval</text>
  <text x="300" y="166" text-anchor="middle" class="small">ChromaDB (TF-IDF)</text>

  <rect x="220" y="230" width="160" height="50" class="box"/>
  <text x="300" y="250" text-anchor="middle" class="label">Letter Drafter</text>
  <text x="300" y="266" text-anchor="middle" class="small">GPT-4o, cites sections</text>

  <polygon points="460,225 570,255 460,285 350,255" class="decision"/>
  <text x="460" y="252" text-anchor="middle" class="label">Reflection</text>
  <text x="460" y="266" text-anchor="middle" class="small">passed?</text>

  <rect x="220" y="340" width="160" height="50" class="tool"/>
  <text x="300" y="360" text-anchor="middle" class="label">Authority Router</text>
  <text x="300" y="376" text-anchor="middle" class="small">MCP tool: lookup_authority</text>

  <rect x="220" y="430" width="160" height="50" class="box"/>
  <text x="300" y="450" text-anchor="middle" class="label">Assemble Output</text>
  <text x="300" y="466" text-anchor="middle" class="small">letter + forum + citations</text>

  <rect x="220" y="510" width="160" height="40" class="box"/>
  <text x="300" y="535" text-anchor="middle" class="label">Gradio UI Response</text>

  <rect x="600" y="230" width="170" height="50" class="tool"/>
  <text x="685" y="250" text-anchor="middle" class="label">Langfuse</text>
  <text x="685" y="266" text-anchor="middle" class="small">traces every node call</text>

  <path class="arrow" d="M160,45 H220"/>
  <path class="arrow" d="M380,45 H360"/>
  <path class="arrow" d="M560,45 H620"/>
  <path class="arrow" d="M460,75 V130 H380"/>
  <text x="470" y="100" class="small">proceed</text>
  <path class="arrow" d="M300,180 V230"/>
  <path class="arrow" d="M380,255 H350"/>
  <path class="arrow" d="M460,285 V400 H300 V340"/>
  <text x="470" y="320" class="small">fail: revise draft</text>
  <path class="arrow" d="M460,285 V310 H300 V340"/>
  <text x="470" y="410" class="small">pass</text>
  <path class="arrow" d="M300,390 V430"/>
  <path class="arrow" d="M300,480 V510"/>
  <path class="arrow" d="M380,255 H600" stroke-dasharray="4,3"/>
  <text x="500" y="215" class="small">(all nodes traced)</text>
</svg>
